<svg width="162" height="30" viewBox="0 0 162 30" fill="none" xmlns="http://www.w3.org/2000/svg">
<path d="M1.29688 29C0.645833 29 0.320312 28.6419 0.320312 27.9258V2.06641C0.320312 1.35026 0.645833 0.992188 1.29688 0.992188H8.91406C13.3411 0.992188 16.3229 1.70833 17.8594 3.14062C19.3958 4.57292 20.1641 6.29818 20.1641 8.31641C20.1641 9.91797 19.526 11.2786 18.25 12.3984C16.974 13.5052 15.737 14.1562 14.5391 14.3516V14.4102C15.8542 14.5273 17.319 15.1849 18.9336 16.3828C20.5612 17.5677 21.375 19.1823 21.375 21.2266C21.375 23.4401 20.5547 25.2891 18.9141 26.7734C17.2865 28.2578 14.2786 29 9.89062 29H1.29688ZM4.07031 25.7969H9.26562C12.0651 25.7969 14.1159 25.4518 15.418 24.7617C16.7201 24.0716 17.3711 22.8542 17.3711 21.1094C17.3711 19.4948 16.707 18.2448 15.3789 17.3594C14.0638 16.474 12.026 16.0312 9.26562 16.0312H4.07031V25.7969ZM4.07031 13.2188H8.97266C11.1471 13.2188 12.918 12.7565 14.2852 11.832C15.6654 10.8945 16.3555 9.72266 16.3555 8.31641C16.3555 6.97526 15.8411 5.95312 14.8125 5.25C13.7839 4.54688 11.8372 4.19531 8.97266 4.19531H4.07031V13.2188ZM25.1836 23.5312C25.1836 21.2135 26.2643 19.5143 28.4258 18.4336C30.6003 17.3529 33.8424 16.7214 38.1523 16.5391V15.2109C38.1523 13.987 37.8724 12.9323 37.3125 12.0469C36.7656 11.1484 35.6719 10.6992 34.0312 10.6992C32.9896 10.6992 32.1562 10.8034 31.5312 11.0117C30.9062 11.207 30.3333 11.474 29.8125 11.8125C29.3047 12.138 28.8164 12.5612 28.3477 13.082C27.9961 13.4727 27.6641 13.4922 27.3516 13.1406L26.3359 11.9688C26.0495 11.6432 26.1471 11.2526 26.6289 10.7969C27.319 10.1458 27.9896 9.65755 28.6406 9.33203C29.2917 9.00651 30.099 8.73307 31.0625 8.51172C32.0391 8.27734 33.0286 8.16016 34.0312 8.16016C36.7526 8.16016 38.6927 8.86328 39.8516 10.2695C41.0104 11.6628 41.5898 13.5768 41.5898 16.0117V28.1211C41.5898 28.707 41.2969 29 40.7109 29H38.9531C38.4453 29 38.1914 28.707 38.1914 28.1211V27.1641H38.1523C37.1237 27.9714 36.1146 28.5378 35.125 28.8633C34.1484 29.1758 33.0547 29.332 31.8438 29.332C29.7083 29.332 28.0612 28.8242 26.9023 27.8086C25.7565 26.7799 25.1836 25.3542 25.1836 23.5312ZM28.7383 23.6094C28.7383 24.4167 28.9076 25.0677 29.2461 25.5625C29.5846 26.0443 30.0534 26.3568 30.6523 26.5C31.2513 26.6302 31.8763 26.6953 32.5273 26.6953C33.5299 26.6953 34.4805 26.5977 35.3789 26.4023C36.2773 26.207 37.2018 25.6927 38.1523 24.8594V19.0977C35.5221 19.293 33.6471 19.5339 32.5273 19.8203C31.4076 20.0938 30.4961 20.5755 29.793 21.2656C29.0898 21.9427 28.7383 22.724 28.7383 23.6094ZM46.043 18.7461C46.043 15.6862 46.7982 13.1602 48.3086 11.168C49.832 9.16276 52.1562 8.16016 55.2812 8.16016C57.3906 8.16016 58.9987 8.53776 60.1055 9.29297C61.2253 10.0352 62.0326 10.7969 62.5273 11.5781C62.8008 12.0078 62.7422 12.3529 62.3516 12.6133L61.1211 13.4141C60.7305 13.6875 60.3398 13.5117 59.9492 12.8867C59.5716 12.2878 59.0378 11.7734 58.3477 11.3438C57.6706 10.9141 56.6484 10.6992 55.2812 10.6992C53.4974 10.6992 52.1172 11.3568 51.1406 12.6719C50.1641 13.987 49.6758 16.0117 49.6758 18.7461C49.6758 21.4805 50.1641 23.5052 51.1406 24.8203C52.1172 26.1354 53.4974 26.793 55.2812 26.793C56.7266 26.793 57.8333 26.5195 58.6016 25.9727C59.3698 25.4128 59.9297 24.8073 60.2812 24.1562C60.6198 23.5443 61.0039 23.3685 61.4336 23.6289L62.7422 24.4102C63.1328 24.6445 63.1914 24.9961 62.918 25.4648C62.5924 26.0247 61.8503 26.8125 60.6914 27.8281C59.5456 28.8307 57.7422 29.332 55.2812 29.332C52.1562 29.332 49.832 28.3359 48.3086 26.3438C46.7982 24.3385 46.043 21.806 46.043 18.7461ZM68.0742 29C67.4883 29 67.1953 28.707 67.1953 28.1211V1.05078C67.1953 0.464844 67.4883 0.171875 68.0742 0.171875H69.7539C70.3398 0.171875 70.6328 0.464844 70.6328 1.05078V17.3008C70.6328 17.6914 70.6198 18.082 70.5938 18.4727H70.6328L78.543 9C78.8294 8.66146 79.1745 8.49219 79.5781 8.49219H81.3555C82.3451 8.49219 82.5143 8.8763 81.8633 9.64453L75.7305 16.9492L82.7422 27.8477C83.237 28.6159 83.0677 29 82.2344 29H80.3203C79.8906 29 79.5195 28.7591 79.207 28.2773L73.582 19.5078L70.6328 23.0234V28.1211C70.6328 28.707 70.3398 29 69.7539 29H68.0742ZM84.4805 19.5664C83.8945 19.5664 83.6016 19.3385 83.6016 18.8828V17.5156C83.6016 17.0599 83.8945 16.832 84.4805 16.832H93.8164C94.4023 16.832 94.6953 17.0599 94.6953 17.5156V18.8828C94.6953 19.3385 94.4023 19.5664 93.8164 19.5664H84.4805ZM100.086 29C99.4349 29 99.1094 28.6419 99.1094 27.9258V2.06641C99.1094 1.35026 99.4349 0.992188 100.086 0.992188H117.176C117.892 0.992188 118.25 1.28516 118.25 1.87109V3.31641C118.25 3.90234 117.892 4.19531 117.176 4.19531H102.859V12.8672H116.004C116.72 12.8672 117.078 13.1602 117.078 13.7461V15.1914C117.078 15.7773 116.72 16.0703 116.004 16.0703H102.859V25.7969H117.762C118.478 25.7969 118.836 26.0898 118.836 26.6758V28.1211C118.836 28.707 118.478 29 117.762 29H100.086ZM124.246 29C123.66 29 123.367 28.707 123.367 28.1211V9.37109C123.367 8.78516 123.66 8.49219 124.246 8.49219H125.887C126.473 8.49219 126.766 8.78516 126.766 9.37109V10.9336H126.844C127.69 9.99609 128.602 9.29948 129.578 8.84375C130.555 8.38802 131.772 8.16016 133.23 8.16016C135.6 8.16016 137.299 8.83073 138.328 10.1719C139.37 11.5 139.891 13.3229 139.891 15.6406V28.1211C139.891 28.707 139.598 29 139.012 29H137.332C136.746 29 136.453 28.707 136.453 28.1211V16.5781C136.453 14.026 136.03 12.4115 135.184 11.7344C134.337 11.0443 133.263 10.6992 131.961 10.6992C130.268 10.6992 128.986 11.207 128.113 12.2227C127.241 13.2253 126.805 14.9505 126.805 17.3984V28.1211C126.805 28.707 126.512 29 125.926 29H124.246ZM144.285 18.7461C144.285 15.9466 144.962 13.4857 146.316 11.3633C147.671 9.22786 149.65 8.16016 152.254 8.16016C153.751 8.16016 154.949 8.40755 155.848 8.90234C156.746 9.39714 157.553 10.0742 158.27 10.9336H158.309C158.283 10.543 158.27 10.1458 158.27 9.74219V1.05078C158.27 0.464844 158.562 0.171875 159.148 0.171875H160.828C161.414 0.171875 161.707 0.464844 161.707 1.05078V28.1211C161.707 28.707 161.414 29 160.828 29H159.188C158.719 29 158.465 28.707 158.426 28.1211L158.309 26.5586H158.27C157.553 27.418 156.746 28.0951 155.848 28.5898C154.949 29.0846 153.751 29.332 152.254 29.332C149.65 29.332 147.671 28.2708 146.316 26.1484C144.962 24.013 144.285 21.5456 144.285 18.7461ZM147.918 18.7461C147.918 21.1419 148.328 23.082 149.148 24.5664C149.982 26.0508 151.388 26.793 153.367 26.793C154.773 26.793 155.939 26.3177 156.863 25.3672C157.801 24.4036 158.27 22.9453 158.27 20.9922V16.5C158.27 14.5469 157.801 13.0951 156.863 12.1445C155.939 11.181 154.773 10.6992 153.367 10.6992C151.388 10.6992 149.982 11.4414 149.148 12.9258C148.328 14.4102 147.918 16.3503 147.918 18.7461Z" fill="black"/>
</svg>
