<svg width="170" height="30" viewBox="0 0 170 30" fill="none" xmlns="http://www.w3.org/2000/svg">
<path d="M1.29688 29C0.645833 29 0.320312 28.6419 0.320312 27.9258V2.06641C0.320312 1.35026 0.645833 0.992188 1.29688 0.992188H17.2148C17.931 0.992188 18.2891 1.28516 18.2891 1.87109V3.31641C18.2891 3.90234 17.931 4.19531 17.2148 4.19531H4.07031V13.4531H15.5352C16.2513 13.4531 16.6094 13.7461 16.6094 14.332V15.7773C16.6094 16.3633 16.2513 16.6562 15.5352 16.6562H4.07031V27.9258C4.07031 28.6419 3.74479 29 3.09375 29H1.29688ZM23.4258 29C22.8398 29 22.5469 28.707 22.5469 28.1211V9.37109C22.5469 8.78516 22.8398 8.49219 23.4258 8.49219H25.0664C25.6523 8.49219 25.9453 8.78516 25.9453 9.37109V11.7148H26.0234C26.6484 10.543 27.3841 9.65755 28.2305 9.05859C29.0768 8.45964 30.1315 8.16016 31.3945 8.16016C32.2279 8.16016 32.8138 8.23177 33.1523 8.375C33.4518 8.49219 33.5625 8.6875 33.4844 8.96094L33.0352 10.5625C32.9701 10.7969 32.8008 10.888 32.5273 10.8359C32.0716 10.7448 31.6419 10.6992 31.2383 10.6992C29.7148 10.6992 28.4583 11.3893 27.4688 12.7695C26.4792 14.1367 25.9844 16.0052 25.9844 18.375V28.1211C25.9844 28.707 25.6914 29 25.1055 29H23.4258ZM35.5352 18.7461C35.5352 15.6862 36.3424 13.1602 37.957 11.168C39.5846 9.16276 41.9609 8.16016 45.0859 8.16016C48.2109 8.16016 50.5807 9.16276 52.1953 11.168C53.8229 13.1602 54.6367 15.6862 54.6367 18.7461C54.6367 21.806 53.8229 24.3385 52.1953 26.3438C50.5807 28.3359 48.2109 29.332 45.0859 29.332C41.9609 29.332 39.5846 28.3359 37.957 26.3438C36.3424 24.3385 35.5352 21.806 35.5352 18.7461ZM39.168 18.7461C39.168 21.4805 39.7083 23.5052 40.7891 24.8203C41.8698 26.1354 43.3021 26.793 45.0859 26.793C46.8698 26.793 48.3021 26.1354 49.3828 24.8203C50.4635 23.5052 51.0039 21.4805 51.0039 18.7461C51.0039 16.0117 50.4635 13.987 49.3828 12.6719C48.3021 11.3568 46.8698 10.6992 45.0859 10.6992C43.3021 10.6992 41.8698 11.3568 40.7891 12.6719C39.7083 13.987 39.168 16.0117 39.168 18.7461ZM59.9492 29C59.3633 29 59.0703 28.707 59.0703 28.1211V9.37109C59.0703 8.78516 59.3633 8.49219 59.9492 8.49219H61.5898C62.1758 8.49219 62.4688 8.78516 62.4688 9.37109V10.9336H62.5469C63.3932 9.99609 64.3047 9.29948 65.2812 8.84375C66.2578 8.38802 67.4753 8.16016 68.9336 8.16016C71.3034 8.16016 73.0026 8.83073 74.0312 10.1719C75.0729 11.5 75.5938 13.3229 75.5938 15.6406V28.1211C75.5938 28.707 75.3008 29 74.7148 29H73.0352C72.4492 29 72.1562 28.707 72.1562 28.1211V16.5781C72.1562 14.026 71.7331 12.4115 70.8867 11.7344C70.0404 11.0443 68.9661 10.6992 67.6641 10.6992C65.9714 10.6992 64.6888 11.207 63.8164 12.2227C62.944 13.2253 62.5078 14.9505 62.5078 17.3984V28.1211C62.5078 28.707 62.2148 29 61.6289 29H59.9492ZM80.1055 11.0703C79.5195 11.0703 79.2266 10.8424 79.2266 10.3867V9.17578C79.2266 8.72005 79.5195 8.49219 80.1055 8.49219H82.4102V6.73438C82.4102 6.47396 82.4753 6.22656 82.6055 5.99219L83.9727 3.51172C84.2201 3.05599 84.4219 2.82812 84.5781 2.82812H85.2617C85.6523 2.82812 85.8477 3.05599 85.8477 3.51172V8.49219H90.0078C90.5938 8.49219 90.8867 8.72005 90.8867 9.17578V10.3867C90.8867 10.8424 90.5938 11.0703 90.0078 11.0703H85.8477V23.5117C85.8477 24.8789 86.0495 25.7708 86.4531 26.1875C86.8698 26.5911 87.3646 26.793 87.9375 26.793C88.3802 26.793 88.9076 26.6628 89.5195 26.4023C90.1445 26.1419 90.5742 25.9206 90.8086 25.7383C91.043 25.556 91.2253 25.6146 91.3555 25.9141L92 27.418C92.1042 27.6784 92.026 27.8867 91.7656 28.043C91.2578 28.3424 90.5156 28.6354 89.5391 28.9219C88.5625 29.1953 87.5859 29.332 86.6094 29.332C85.2552 29.332 84.2135 28.8438 83.4844 27.8672C82.7682 26.8906 82.4102 25.5104 82.4102 23.7266V11.0703H80.1055ZM92.2539 19.5664C91.668 19.5664 91.375 19.3385 91.375 18.8828V17.5156C91.375 17.0599 91.668 16.832 92.2539 16.832H101.59C102.176 16.832 102.469 17.0599 102.469 17.5156V18.8828C102.469 19.3385 102.176 19.5664 101.59 19.5664H92.2539ZM107.859 29C107.208 29 106.883 28.6419 106.883 27.9258V2.06641C106.883 1.35026 107.208 0.992188 107.859 0.992188H124.949C125.665 0.992188 126.023 1.28516 126.023 1.87109V3.31641C126.023 3.90234 125.665 4.19531 124.949 4.19531H110.633V12.8672H123.777C124.493 12.8672 124.852 13.1602 124.852 13.7461V15.1914C124.852 15.7773 124.493 16.0703 123.777 16.0703H110.633V25.7969H125.535C126.251 25.7969 126.609 26.0898 126.609 26.6758V28.1211C126.609 28.707 126.251 29 125.535 29H107.859ZM132.02 29C131.434 29 131.141 28.707 131.141 28.1211V9.37109C131.141 8.78516 131.434 8.49219 132.02 8.49219H133.66C134.246 8.49219 134.539 8.78516 134.539 9.37109V10.9336H134.617C135.464 9.99609 136.375 9.29948 137.352 8.84375C138.328 8.38802 139.546 8.16016 141.004 8.16016C143.374 8.16016 145.073 8.83073 146.102 10.1719C147.143 11.5 147.664 13.3229 147.664 15.6406V28.1211C147.664 28.707 147.371 29 146.785 29H145.105C144.52 29 144.227 28.707 144.227 28.1211V16.5781C144.227 14.026 143.803 12.4115 142.957 11.7344C142.111 11.0443 141.036 10.6992 139.734 10.6992C138.042 10.6992 136.759 11.207 135.887 12.2227C135.014 13.2253 134.578 14.9505 134.578 17.3984V28.1211C134.578 28.707 134.285 29 133.699 29H132.02ZM152.059 18.7461C152.059 15.9466 152.736 13.4857 154.09 11.3633C155.444 9.22786 157.423 8.16016 160.027 8.16016C161.525 8.16016 162.723 8.40755 163.621 8.90234C164.52 9.39714 165.327 10.0742 166.043 10.9336H166.082C166.056 10.543 166.043 10.1458 166.043 9.74219V1.05078C166.043 0.464844 166.336 0.171875 166.922 0.171875H168.602C169.188 0.171875 169.48 0.464844 169.48 1.05078V28.1211C169.48 28.707 169.188 29 168.602 29H166.961C166.492 29 166.238 28.707 166.199 28.1211L166.082 26.5586H166.043C165.327 27.418 164.52 28.0951 163.621 28.5898C162.723 29.0846 161.525 29.332 160.027 29.332C157.423 29.332 155.444 28.2708 154.09 26.1484C152.736 24.013 152.059 21.5456 152.059 18.7461ZM155.691 18.7461C155.691 21.1419 156.102 23.082 156.922 24.5664C157.755 26.0508 159.161 26.793 161.141 26.793C162.547 26.793 163.712 26.3177 164.637 25.3672C165.574 24.4036 166.043 22.9453 166.043 20.9922V16.5C166.043 14.5469 165.574 13.0951 164.637 12.1445C163.712 11.181 162.547 10.6992 161.141 10.6992C159.161 10.6992 157.755 11.4414 156.922 12.9258C156.102 14.4102 155.691 16.3503 155.691 18.7461Z" fill="black"/>
</svg>
