<?xml version="1.0" encoding="utf-8"?>
<!-- Svg Vector Icons : http://www.onlinewebfonts.com/icon -->
<!DOCTYPE svg PUBLIC "-//W3C//DTD SVG 1.1//EN" "http://www.w3.org/Graphics/SVG/1.1/DTD/svg11.dtd">
<svg version="1.1" xmlns="http://www.w3.org/2000/svg" xmlns:xlink="http://www.w3.org/1999/xlink" x="0px" y="0px" viewBox="0 0 256 256" enable-background="new 0 0 256 256" xml:space="preserve">
<metadata> Svg Vector Icons : http://www.onlinewebfonts.com/icon </metadata>
<g><g><g><path fill="#000000" d="M179.9,10.6c-2.3,1.2-2.5,2.1-2.5,8.3v5.9h-2.4c-2.4,0-2.4,0-3.2-1.8c-0.9-2.2-3.3-3.5-5.5-3c-1.5,0.3-3.6,2.6-3.6,4c0,0.6-0.3,0.9-1,0.9c-0.6,0-1.7,0.7-2.5,1.6l-1.6,1.6v21c0,18.2,0.1,21.3,0.7,22.4c1.4,2.8,0.5,2.7,38.7,2.7c38.6,0,37.2,0.1,38.6-3c0.6-1.3,0.7-4.3,0.7-21.6c0-22.7,0-22.8-3.1-24.2c-1.3-0.5-2-1.2-2.5-2.5c-0.9-2.1-3.3-3.4-5.5-2.9c-1.5,0.3-3.6,2.6-3.6,4c0,0.7-0.3,0.9-2.5,0.9h-2.5v-5.8v-5.8l-1.6-1.6l-1.6-1.6H197C186.1,10,180.5,10.2,179.9,10.6z M206.7,22.3l0.1,2.4H197h-10v-2.5v-2.5l9.8,0.1l9.8,0.1L206.7,22.3z M226.2,49.2v14.8h-29.5h-29.5V49.5c0-8,0.1-14.6,0.3-14.8c0.1-0.2,13.4-0.3,29.5-0.3h29.2V49.2z"/><path fill="#000000" d="M111.6,46.6c-3.2,1.4-4,5.3-1.6,7.7c1.4,1.4,1.6,1.5,6.9,2.4l3.4,0.6L72.4,91.5c-26.3,18.9-48.8,35-49.9,35.9c-2.5,2-3.1,3.4-2.4,5.8c0.6,2,2.7,3.5,4.7,3.5c1.6,0-1.8,2.4,54-37.7c25.9-18.5,47.1-33.6,47.1-33.6c0,0-0.2,2-0.6,4.4c-0.6,3.9-0.6,4.5,0,5.9c1.8,3.7,6.6,3.7,8.7-0.1c0.4-0.8,3.5-19.7,3.5-21.6c0-1.2-0.4-2.1-1.2-3c-1.2-1.3-1.7-1.4-11.2-3c-5.4-0.9-10.4-1.7-11.1-1.8C113.5,46.1,112.4,46.3,111.6,46.6z"/><path fill="#000000" d="M157.5,108.4v24.7h-34.3H88.8v24.4v24.4L54.4,182l-34.5,0.1l-0.1,31.9L19.7,246H128h108.3v-81.1V83.8h-39.4h-39.4V108.4z M226.2,164.9v71.4l-29.4-0.1l-29.4-0.1l-0.1-70.8c0-38.9,0-71,0.1-71.4c0.1-0.4,6.5-0.6,29.5-0.6h29.3V164.9z M157.5,189.5v46.8H128H98.5v-46.8v-46.8H128h29.5V189.5z M88.7,214.1l-0.1,22l-29.4,0.1l-29.4,0.1v-22.1v-22.1h29.5h29.5L88.7,214.1z"/></g></g></g>
</svg>