<?xml version="1.0" encoding="utf-8"?>
<!-- Svg Vector Icons : http://www.onlinewebfonts.com/icon -->
<!DOCTYPE svg PUBLIC "-//W3C//DTD SVG 1.1//EN" "http://www.w3.org/Graphics/SVG/1.1/DTD/svg11.dtd">
<svg version="1.1" xmlns="http://www.w3.org/2000/svg" xmlns:xlink="http://www.w3.org/1999/xlink" x="0px" y="0px" viewBox="0 0 256 256" enable-background="new 0 0 256 256" xml:space="preserve">
<metadata> Svg Vector Icons : http://www.onlinewebfonts.com/icon </metadata>
<g><g><g><path fill="#000000" d="M236.7,36.6c-3.8,1.6-56,23.5-116.2,48.7c-81.6,34.1-109.5,46-110,46.8c-0.6,0.9-0.6,1.2-0.1,2c0.5,0.7,10.3,5.1,29.4,13.3c15.8,6.8,29,12.5,29.2,12.8c0.2,0.2,7.3,13.9,15.8,30.5c8.5,16.5,15.7,30.4,16.1,30.9c0.4,0.5,1.2,0.8,1.7,0.7c0.7-0.1,6.2-6.9,16.3-20.1c8.5-11,15.6-20.1,16-20.3c0.4-0.3,11.6,4.3,31.7,13c17.1,7.4,31.6,13.4,32.3,13.4c0.6,0,1.3-0.3,1.6-0.6c0.2-0.3,8.9-32,19.1-70.5c10.2-38.5,20.5-77,22.8-85.6c4.3-16.1,4.4-16.9,2.5-17.7C243.8,33.5,244.3,33.4,236.7,36.6z M218.3,123.2c-11.6,43.5-21.2,79.2-21.3,79.3c-0.3,0.3-82.5-35.1-82.6-35.6c0-0.2,124.8-122.9,124.9-122.8C239.4,44.2,229.9,79.8,218.3,123.2z M223,48.1c-0.6,0.5-35.1,24.8-76.6,54c-57,40.2-75.7,53.2-76.4,53c-1.5-0.4-51.1-21.6-51.1-21.9c0-0.2,204.2-85.8,204.9-85.9C223.9,47.2,223.6,47.6,223,48.1z M207.6,68.5c-7.1,7-30.2,29.7-51.2,50.3s-40.6,39.8-43.5,42.7l-5.3,5.2l-3.1,22.1c-1.7,12.2-3.3,22.2-3.4,22.4c-0.3,0.4-27-51.6-26.7-52.2c0.1-0.3,145.8-103.3,146.2-103.3C220.5,55.7,214.7,61.5,207.6,68.5z M124.8,176.8l5.7,2.4l-1.3,1.7c-5.4,7.2-22.9,29.6-23,29.4c-0.2-0.2,4.7-35,5.3-37.9l0.2-1.3l3.6,1.5C117.4,173.6,121.6,175.5,124.8,176.8z"/></g></g></g>
</svg>