<?xml version="1.0" encoding="utf-8"?>
<!-- Svg Vector Icons : http://www.onlinewebfonts.com/icon -->
<!DOCTYPE svg PUBLIC "-//W3C//DTD SVG 1.1//EN" "http://www.w3.org/Graphics/SVG/1.1/DTD/svg11.dtd">
<svg version="1.1" xmlns="http://www.w3.org/2000/svg" xmlns:xlink="http://www.w3.org/1999/xlink" x="0px" y="0px" viewBox="0 0 256 256" enable-background="new 0 0 256 256" xml:space="preserve">
<metadata> Svg Vector Icons : http://www.onlinewebfonts.com/icon </metadata>
<g><g><path fill="#000000" d="M204.7,10H51.3C35,10,21.6,23.3,21.6,39.6v135.7c0,16.4,13.3,29.6,29.6,29.6h6.4v33.3c0,2.7,1.4,5.2,3.7,6.6c1.2,0.7,2.6,1.1,4,1.1c1.2,0,2.4-0.3,3.5-0.8l78.3-40.2h57.4c16.4,0,29.6-13.3,29.6-29.6V39.6C234.4,23.3,221,10,204.7,10z M218.9,175.3c0,7.8-6.4,14.2-14.2,14.2h-59.3c-1.2,0-2.4,0.3-3.5,0.8l-68.6,35.3v-28.3c0-4.3-3.5-7.7-7.7-7.7H51.3c-7.8,0-14.2-6.4-14.2-14.2V39.6c0-7.8,6.4-14.2,14.2-14.2h153.4c7.8,0,14.2,6.4,14.2,14.2V175.3L218.9,175.3z"/><path fill="#000000" d="M128,53.2c-19.4,0-35.1,15.8-35.1,35.1c0,4.2,3.4,7.6,7.6,7.6c4.2,0,7.6-3.4,7.6-7.6c0-11,8.9-19.9,19.9-19.9s19.9,8.9,19.9,19.9c0,8.1-4.8,15.3-12.3,18.4c-9.2,3.9-15.2,12.9-15.2,22.9c0,4.2,3.4,7.6,7.6,7.6c3.7,0,6.8-2.6,7.5-6.2c0.1-0.4,0.1-0.9,0.1-1.4c0-3.9,2.4-7.4,6-8.9l0.2-0.1c13-5.5,21.3-18.2,21.3-32.3C163.1,68.9,147.4,53.2,128,53.2z"/><path fill="#000000" d="M127.3,145.5c-6,0-10.9,4.9-10.9,10.9c0,6,4.9,10.9,10.9,10.9c6,0,10.9-4.9,10.9-10.9C138.1,150.4,133.3,145.5,127.3,145.5z"/></g></g>
</svg>