<?xml version="1.0" encoding="utf-8"?>
<!-- Svg Vector Icons : http://www.onlinewebfonts.com/icon -->
<!DOCTYPE svg PUBLIC "-//W3C//DTD SVG 1.1//EN" "http://www.w3.org/Graphics/SVG/1.1/DTD/svg11.dtd">
<svg version="1.1" xmlns="http://www.w3.org/2000/svg" xmlns:xlink="http://www.w3.org/1999/xlink" x="0px" y="0px" viewBox="0 0 256 256" enable-background="new 0 0 256 256" xml:space="preserve">
<metadata> Svg Vector Icons : http://www.onlinewebfonts.com/icon </metadata>
<g><g><g><path fill="#000000" d="M50.7,11.1l-1.3,1.1v9.4c0,9.4,0,9.5,1.1,10.6c1,1,1.5,1.2,3.8,1.2H57v3.9v3.9l-22.4,0.1l-22.4,0.1l-1.1,1.3L10,44.2v50.4V145l1.1,1.2c0.8,1,1.5,1.3,2.8,1.3c1.7,0,3.6-1.9,57.9-56.2L128,35.1l56.2,56.2c54.3,54.3,56.2,56.2,57.9,56.2c1.3,0,1.9-0.3,2.8-1.3l1.1-1.2V94.6V44.2l-1.1-1.3l-1.1-1.3l-38.7-0.1l-38.7-0.1l-1.4,1.2c-1.8,1.5-2,3.8-0.3,5.5l1.1,1.2H202h36.2v42.5v42.5l-54.1-54.1c-49.1-49.1-54.2-54.1-55.8-54.3l-1.8-0.3L72.2,79.9l-54.3,54.3V91.7V49.2h22.5h22.5l1-1.1c1-1,1-1.5,1-10.6c0-11.5,0-11.5-4.8-11.8l-3-0.2v-3.9v-3.9h12h12v3.9v3.9l-3,0.2c-4.8,0.3-4.8,0.3-4.8,11.8c0,12.4-0.7,11.6,9.6,11.6c7.3,0,7.5,0,8.6-1.2c1.7-1.7,1.6-4-0.3-5.5c-1.3-1.1-1.8-1.2-5.8-1.2H81v-3.9v-3.9h2.5c2,0,2.8-0.2,3.8-1.1l1.3-1.1v-9.5v-9.5l-1.3-1.1L86,10H69H52L50.7,11.1z"/><path fill="#000000" d="M122.1,74.1c-3.2,1.2-6.5,4.3-8.2,7.7c-1.2,2.4-1.4,3.1-1.4,6.8c0,3.6,0.2,4.5,1.3,6.8c1.7,3.4,5.5,6.9,8.7,8c3.1,1.1,7.7,1.1,10.9,0c3.2-1.1,7.1-4.6,8.7-8c1.1-2.3,1.3-3.2,1.3-6.8c0-3.7-0.1-4.5-1.4-6.8c-1.7-3.4-5-6.4-8.3-7.7C130.4,72.8,125.4,72.9,122.1,74.1z M132.5,82.3c4.1,2.9,4.4,9,0.6,12.2c-3.1,2.6-7.1,2.6-10.2,0c-4.3-3.6-3.2-10.9,1.9-13C126.7,80.7,130.9,81.1,132.5,82.3z"/><path fill="#000000" d="M50.7,144.8l-1.3,1.1l-0.1,22.6l-0.1,22.6h-2.5c-3.1,0-4,0.5-4.8,2.3c-0.8,1.9,0.1,4.1,2.1,4.9c2.3,0.9,47.9,0.9,50.2,0c2-0.8,2.9-3,2.1-4.9c-0.8-1.8-1.7-2.3-4.8-2.3h-2.5l-0.1-22.6l-0.1-22.6l-1.3-1.1l-1.3-1.1H69H52L50.7,144.8z M80.9,159.4l0.1,7.7H69H57v-7.5c0-4.1,0.1-7.7,0.3-7.9c0.2-0.1,5.5-0.2,11.8-0.2l11.6,0.1L80.9,159.4z M80.8,183.1v7.8H69H57.2l-0.1-7.4c0-4,0-7.6,0.1-7.9c0.2-0.5,2.6-0.6,11.9-0.5l11.7,0.1V183.1z"/><path fill="#000000" d="M106.6,144.2c-2.1,1.2-2,0-2.1,40.1v38.2h-6.7c-6.5,0-6.8,0-7.8,1.2c-1.2,1.1-1.2,1.2-1.2,10.6s0,9.5,1.2,10.6c1.4,1.5,3.5,1.5,5.2,0c1.3-1.1,1.3-1.1,1.4-7.8l0.1-6.7h33.6c35.6,0,35.7,0,36.6-2.1c0.6-1.6,0.3-3.5-0.9-4.6c-1.1-1.1-1.3-1.2-7.8-1.2h-6.7v-38.2c0-40.3,0-39-2.2-40.1C147.9,143.4,107.9,143.5,106.6,144.2z M143.7,167.1v15.6l-2.9,0.3c-2.4,0.2-3.1,0.5-3.9,1.5c-2.7,3.1-0.1,6.7,4.9,6.7h1.8v15.7v15.7H128h-15.7V187v-35.5H128h15.7V167.1z"/><path fill="#000000" d="M168.7,144.8l-1.3,1.1l-0.1,22.6l-0.1,22.6h-2.5c-3.1,0-4,0.5-4.8,2.3c-0.7,1.8,0,3.9,1.9,4.8c1.8,1,48.1,1,50.4,0c2-0.8,2.9-3,2.1-4.9c-0.8-1.8-1.7-2.3-4.8-2.3h-2.5l-0.1-22.6l-0.1-22.6l-1.3-1.1l-1.3-1.1h-17h-17L168.7,144.8z M198.9,159.4l0.1,7.7h-12h-12v-7.5c0-4.1,0.1-7.7,0.3-7.9c0.2-0.1,5.5-0.2,11.8-0.2l11.6,0.1L198.9,159.4z M198.8,183.1v7.8H187h-11.8l-0.1-7.4c0-4,0-7.6,0.1-7.9c0.2-0.5,2.6-0.6,11.9-0.5l11.7,0.1V183.1L198.8,183.1z"/><path fill="#000000" d="M27.6,148.1c-0.3,0.1-0.9,0.8-1.2,1.5c-0.6,1.2-0.7,5.9-0.7,33.1v31.8l-2.3,0.3c-5,0.6-9.8,4.3-12.1,9.4c-1.6,3.5-1.5,9.2,0.2,12.7c1.5,3.1,5,6.5,8.1,7.9c2.1,1,2.4,1,27.6,1h25.4l2.2-1.4c8.1-5,7.9-16.3-0.3-20.6c-1.2-0.6-1.8-1.3-2-2.2c-1.6-6.4-7.2-12.3-13.5-14.1c-3.5-1-8.7-1-11.9,0.2c-4.6,1.6-7.6,4.1-10.9,8.9c-0.5,0.7-0.7,0.8-1.6,0.3l-1-0.6v-33.2v-33.2l-1.2-1.1C31.3,147.9,29.2,147.5,27.6,148.1z M58.2,215.8c2.4,1.1,5,3.7,5.8,5.8c0.3,0.6,0.7,2.3,0.9,3.7c0.6,3.4,1.4,4.6,3.7,4.9c4,0.6,5.6,4.3,2.9,6.9l-1.1,1.2H47.3c-25.1,0-24.8,0-27.3-2.6c-3.5-3.7-2.7-9.4,1.7-11.9c4.5-2.6,9.5-0.9,12.4,4.3c1,1.7,2.6,2.6,4.3,2.2c1.9-0.5,2.8-1.8,3.2-4.6c0.4-3.3,1.5-5.5,3.9-7.8C48.7,214.5,53.8,213.7,58.2,215.8z"/><path fill="#000000" d="M223.6,149l-1.2,1.1v33.2v33.2l-1,0.6c-0.8,0.5-1.1,0.4-1.6-0.3c-4.7-6.8-9.9-9.9-16.9-9.9c-6,0-10.5,1.9-14.5,6.1c-2.5,2.7-3.9,5-4.7,8c-0.4,1.5-0.9,2.2-2,2.7c-1.9,1-4.4,3.3-5.2,4.9c-1.1,2.2-1.7,5.6-1.2,7.7l0.5,1.9h-34.6h-34.5l-1.1,1.2c-1.6,1.6-1.6,4.1,0.1,5.6l1.2,1.1l63.7-0.1l63.7-0.1l2.2-1c3-1.4,6.6-4.8,8.1-7.9c1.8-3.5,1.8-9.2,0.2-12.7c-2.3-5-7.1-8.8-12.1-9.4l-2.3-0.3v-31.8c0-33.6,0-33.8-2.1-34.7C226.6,147.5,224.8,147.8,223.6,149z M206.5,215.2c2.9,0.9,6.5,4.6,7.4,7.7c0.4,1.4,0.7,3.1,0.7,3.8c0,2.4,3,4.2,5.3,3.2c0.6-0.3,1.5-1.2,1.9-1.9c2.9-5.2,7.9-7,12.4-4.3c4.3,2.5,5.1,8.3,1.7,11.9c-2.4,2.6-2.2,2.6-27.3,2.6h-23.1l-1.1-1.2c-2.6-2.6-1.1-6.2,2.9-6.9c2.4-0.4,3.2-1.6,3.7-5.3C192.2,217.4,199.2,213,206.5,215.2z"/></g></g></g>
</svg>