<?xml version="1.0" encoding="utf-8"?>
<!-- Svg Vector Icons : http://www.onlinewebfonts.com/icon -->
<!DOCTYPE svg PUBLIC "-//W3C//DTD SVG 1.1//EN" "http://www.w3.org/Graphics/SVG/1.1/DTD/svg11.dtd">
<svg version="1.1" xmlns="http://www.w3.org/2000/svg" xmlns:xlink="http://www.w3.org/1999/xlink" x="0px" y="0px" viewBox="0 0 256 256" enable-background="new 0 0 256 256" xml:space="preserve">
<metadata> Svg Vector Icons : http://www.onlinewebfonts.com/icon </metadata>
<g><g><path fill="#000000" d="M195.5,41.2c-2-0.5-3.4-0.5-5.4-0.5H53.9l0,0h136.2C192,40.7,194,40.7,195.5,41.2z M201.9,43.1c-0.5,0-0.5-0.5-1-0.5C201.4,42.6,201.9,43.1,201.9,43.1z M213.3,52.5c-0.5-0.5-1-1.5-1.5-2C212.3,51.5,212.8,52,213.3,52.5z M223.1,202c-1,0-1.5,0-2.5,0h-4.4V63.4c0-2,0-3.4-0.5-5.4c0.5,1.5,0.5,3.4,0.5,5.4V202h4.4C221.6,202,222.2,202,223.1,202z M227.6,200.5c-0.5,0.5-1.5,0.5-2,1C226.1,201,227.1,201,227.6,200.5z M238.9,16c-4.9-3.9-11.3-5.9-17.8-5.9H66.7c-6.9,0-13.3,2-17.7,5.9c-4.9,4.4-7.9,10.4-7.9,16.3v7.9h-4.9c-6.9,0-13.3,2-17.7,5.9C13,51,10,57,10,63.4v160.3c0,6.4,3,12.3,7.9,16.3s11.3,5.9,17.7,5.9h153.9c6.9,0,13.3-2,17.8-5.9c4.9-4.4,8.4-10.4,8.4-16.3v-7.9h4.4c6.9,0,13.3-2,17.8-5.9c4.9-4.4,7.9-10.4,7.9-16.3V32.8C246.8,26.4,243.9,20.4,238.9,16z M202.9,223.2c0,4.9-5.9,8.9-12.8,8.9H36.2c-6.9,0-12.8-3.9-12.8-8.9V63.4c0-4.9,5.9-8.9,12.8-8.9h4.4h13.3l0,0h136.2c6.9,0,12.8,3.9,12.8,8.9V223.2L202.9,223.2z M233.5,192.6c0,2-1,4-2.5,5.4c0,0,0,0-0.5,0.5c-0.5,0.5-1,1-1.5,1c0,0-0.5,0-0.5,0.5c0,0.5-0.5,0-0.5,0.5c0,0-0.5,0-0.5,0.5c0,0,0,0-0.5,0c-0.5,0.5-1.5,0.5-2,1h-0.5c0,0,0,0-0.5,0s-1,0-1.5,0.5c-1,0-1.5,0-2.5,0h-4.4V63.4c0-2,0-3.4-0.5-5.4c0-0.5,0-0.5-0.5-1c0-0.5,0-0.5-0.5-1c0-0.5,0-0.5-0.5-1c0-0.5-0.5-0.5-0.5-1c-0.5-0.5-0.5-1-1-1.5c-0.5-0.5-1-1.5-1.5-2c-0.5-1-1.5-1.5-2-2.5c-0.5-0.5-1-1-2-1.5c-0.5-0.5-0.5-0.5-1-1c0,0,0,0-0.5-0.5l0,0c-0.5,0-0.5-0.5-1-0.5c-1-0.5-2.5-1.5-3.4-2c-0.5,0-0.5-0.5-1-0.5c-0.5,0-1-0.5-1.5-0.5h-0.5c-1,0-1.5-0.5-2.5-0.5h-0.5c-0.5,0-0.5,0-1,0c-2-0.5-3.4-0.5-5.4-0.5h-135v-7.9c0-1,0-2,0.5-3c0.5-1,1-1.5,2-2.5c2.5-2.5,5.9-4,10.4-4h153.9c6.9,0,12.8,4,12.8,8.9V192.6L233.5,192.6z M44.5,68.3h99.2v13.3H44.5V68.3z M165.4,75.2c0-3.9,3-6.9,6.9-7.4c4,0,6.9,3,7.4,6.9v0.5c0,3.9-3,6.9-6.9,7.4c-4,0-6.9-3-7.4-6.9V75.2z M23.3,93.5h179.6v13.3H23.3V93.5L23.3,93.5z"/></g></g>
</svg>