<svg width="65" height="30" viewBox="0 0 65 30" fill="none" xmlns="http://www.w3.org/2000/svg">
<path d="M1.29688 29C0.645833 29 0.320312 28.6419 0.320312 27.9258V2.06641C0.320312 1.35026 0.645833 0.992188 1.29688 0.992188H18.3867C19.1029 0.992188 19.4609 1.28516 19.4609 1.87109V3.31641C19.4609 3.90234 19.1029 4.19531 18.3867 4.19531H4.07031V12.8672H17.2148C17.931 12.8672 18.2891 13.1602 18.2891 13.7461V15.1914C18.2891 15.7773 17.931 16.0703 17.2148 16.0703H4.07031V25.7969H18.9727C19.6888 25.7969 20.0469 26.0898 20.0469 26.6758V28.1211C20.0469 28.707 19.6888 29 18.9727 29H1.29688ZM23.582 11.0703C22.9961 11.0703 22.7031 10.8424 22.7031 10.3867V9.17578C22.7031 8.72005 22.9961 8.49219 23.582 8.49219H25.8867V6.73438C25.8867 6.47396 25.9518 6.22656 26.082 5.99219L27.4492 3.51172C27.6966 3.05599 27.8984 2.82812 28.0547 2.82812H28.7383C29.1289 2.82812 29.3242 3.05599 29.3242 3.51172V8.49219H33.4844C34.0703 8.49219 34.3633 8.72005 34.3633 9.17578V10.3867C34.3633 10.8424 34.0703 11.0703 33.4844 11.0703H29.3242V23.5117C29.3242 24.8789 29.526 25.7708 29.9297 26.1875C30.3464 26.5911 30.8411 26.793 31.4141 26.793C31.8568 26.793 32.3841 26.6628 32.9961 26.4023C33.6211 26.1419 34.0508 25.9206 34.2852 25.7383C34.5195 25.556 34.7018 25.6146 34.832 25.9141L35.4766 27.418C35.5807 27.6784 35.5026 27.8867 35.2422 28.043C34.7344 28.3424 33.9922 28.6354 33.0156 28.9219C32.0391 29.1953 31.0625 29.332 30.0859 29.332C28.7318 29.332 27.6901 28.8438 26.9609 27.8672C26.2448 26.8906 25.8867 25.5104 25.8867 23.7266V11.0703H23.582ZM38.2695 18.7461C38.2695 15.6862 39.0247 13.1602 40.5352 11.168C42.0586 9.16276 44.3828 8.16016 47.5078 8.16016C49.6172 8.16016 51.2253 8.53776 52.332 9.29297C53.4518 10.0352 54.2591 10.7969 54.7539 11.5781C55.0273 12.0078 54.9688 12.3529 54.5781 12.6133L53.3477 13.4141C52.957 13.6875 52.5664 13.5117 52.1758 12.8867C51.7982 12.2878 51.2643 11.7734 50.5742 11.3438C49.8971 10.9141 48.875 10.6992 47.5078 10.6992C45.724 10.6992 44.3438 11.3568 43.3672 12.6719C42.3906 13.987 41.9023 16.0117 41.9023 18.7461C41.9023 21.4805 42.3906 23.5052 43.3672 24.8203C44.3438 26.1354 45.724 26.793 47.5078 26.793C48.9531 26.793 50.0599 26.5195 50.8281 25.9727C51.5964 25.4128 52.1562 24.8073 52.5078 24.1562C52.8464 23.5443 53.2305 23.3685 53.6602 23.6289L54.9688 24.4102C55.3594 24.6445 55.418 24.9961 55.1445 25.4648C54.819 26.0247 54.0768 26.8125 52.918 27.8281C51.7721 28.8307 49.9688 29.332 47.5078 29.332C44.3828 29.332 42.0586 28.3359 40.5352 26.3438C39.0247 24.3385 38.2695 21.806 38.2695 18.7461ZM61.4141 29C60.8281 29 60.5352 28.707 60.5352 28.1211V25.7383C60.5352 25.1523 60.8281 24.8594 61.4141 24.8594H63.6016C64.1875 24.8594 64.4805 25.1523 64.4805 25.7383V28.1211C64.4805 28.707 64.1875 29 63.6016 29H61.4141Z" fill="black"/>
</svg>
