<?xml version="1.0" encoding="UTF-8"?>
<svg xmlns="http://www.w3.org/2000/svg" xmlns:xlink="http://www.w3.org/1999/xlink" width="96px" height="96px" viewBox="0 0 96 96" version="1.1">
<g id="surface1">
<path style=" stroke:none;fill-rule:nonzero;fill:rgb(100%,40%,0%);fill-opacity:1;" d="M 89.636719 38.394531 L 59.46875 38.394531 C 57.960938 38.394531 56.738281 37.171875 56.738281 35.664062 L 56.738281 4.21875 C 56.738281 1.878906 54.859375 0 52.519531 0 L 41.742188 0 C 39.402344 0 37.523438 1.882812 37.523438 4.21875 L 37.523438 35.453125 C 37.523438 37.082031 36.214844 38.394531 34.582031 38.394531 L 24.691406 38.429688 C 23.058594 38.429688 21.710938 37.121094 21.746094 35.488281 L 21.816406 4.222656 C 21.816406 1.882812 19.9375 0.00390625 17.597656 0.00390625 L 6.820312 0.00390625 C 4.480469 0.00390625 2.605469 1.882812 2.605469 4.222656 L 2.605469 92.242188 C 2.605469 94.300781 4.269531 96 6.363281 96 L 89.636719 96 C 91.691406 96 93.394531 94.335938 93.394531 92.242188 L 93.394531 42.148438 C 93.398438 41.152344 93.003906 40.191406 92.300781 39.488281 C 91.59375 38.78125 90.632812 38.386719 89.636719 38.390625 Z M 75.492188 71.433594 C 75.484375 74.132812 73.296875 76.320312 70.597656 76.324219 L 62.089844 76.324219 C 59.390625 76.320312 57.207031 74.132812 57.199219 71.433594 L 57.199219 62.925781 C 57.207031 60.226562 59.390625 58.042969 62.089844 58.035156 L 70.597656 58.035156 C 73.296875 58.042969 75.484375 60.226562 75.492188 62.925781 Z M 75.492188 71.433594 "/>
</g>
</svg>
